<svg width="28" height="28" viewBox="0 0 28 28" fill="none" xmlns="http://www.w3.org/2000/svg">
<circle cx="14" cy="14" r="13.5" stroke="#0C0B1C"/>
<g clip-path="url(#clip0_6001_1893)">
<path d="M19.2196 20.9996C19.3298 21.0003 19.4388 20.9776 19.5396 20.9331C19.6403 20.8886 19.7305 20.8233 19.8042 20.7414C19.8779 20.6595 19.9334 20.563 19.9671 20.4581C20.0008 20.3532 20.0118 20.2424 19.9996 20.1329V17.2729L16.8796 15.9729L15.5796 18.2263L14.8863 17.8796C12.8199 16.8533 11.1459 15.1793 10.1196 13.1129L9.77293 12.4196L12.0263 11.1196L10.7263 7.9996H7.86627C7.7491 7.98566 7.6303 7.99849 7.5188 8.03712C7.40731 8.07574 7.30603 8.13916 7.2226 8.2226C7.13916 8.30603 7.07574 8.40731 7.03712 8.5188C6.99849 8.6303 6.98566 8.7491 6.9996 8.86627C7.22384 12.0248 8.58571 14.995 10.8327 17.2261C13.0798 19.4572 16.0595 20.7978 19.2196 20.9996Z" fill="#0C0B1C"/>
</g>
<defs>
<clipPath id="clip0_6001_1893">
<rect width="13" height="13" fill="white" transform="translate(7 8)"/>
</clipPath>
</defs>
</svg>
