<svg width="233" height="100" viewBox="0 0 233 100" fill="none" xmlns="http://www.w3.org/2000/svg">
<path id="Subtract" fill-rule="evenodd" clip-rule="evenodd" d="M0 99.48H6.72L34.92 0H28.2L0 99.48ZM126.358 64.08C127.292 71.28 127.758 78.68 127.758 86.28C127.758 90.6946 127.602 95.1613 127.29 99.68H140.177C140.431 95.7563 140.558 91.7563 140.558 87.68C140.558 82.2133 140.358 76.6133 139.958 70.88C139.558 65.1467 138.758 59.6133 137.558 54.28C136.358 48.8133 134.625 43.68 132.358 38.88C130.225 34.08 127.358 29.88 123.758 26.28C120.292 22.68 116.025 19.88 110.958 17.88C105.892 15.7467 99.8918 14.68 92.9584 14.68C82.8251 14.68 74.6251 16.7467 68.3584 20.88C62.0918 25.0133 57.2251 30.48 53.7584 37.28C50.4251 43.9467 48.1584 51.5467 46.9584 60.08C45.7584 68.6133 45.1584 77.3467 45.1584 86.28C45.1584 90.8495 45.3054 95.3162 45.5992 99.68H58.2968C58.0712 95.8492 57.9584 91.8492 57.9584 87.68C57.9584 79.9467 58.4251 72.3467 59.3584 64.88C60.4251 57.4133 62.2251 50.7467 64.7584 44.88C67.2918 39.0133 70.7584 34.3467 75.1584 30.88C79.6918 27.28 85.4918 25.48 92.5584 25.48C100.025 25.48 106.025 27.2133 110.558 30.68C115.225 34.1467 118.825 38.7467 121.358 44.48C123.892 50.2133 125.558 56.7467 126.358 64.08ZM232.891 99.68V16.08H221.291L162.825 99.68H175.493L220.091 35.28V99.68H232.891Z" fill="#005DF3"/>
</svg>
