<svg width="252" height="100" viewBox="0 0 252 100" fill="none" xmlns="http://www.w3.org/2000/svg">
<path id="Subtract" fill-rule="evenodd" clip-rule="evenodd" d="M0 99.48H6.72L34.92 0H28.2L0 99.48ZM126.358 64.08C127.292 71.28 127.758 78.68 127.758 86.28C127.758 90.6946 127.602 95.1613 127.29 99.68H140.177C140.431 95.7563 140.558 91.7563 140.558 87.68C140.558 82.2133 140.358 76.6133 139.958 70.88C139.558 65.1467 138.758 59.6133 137.558 54.28C136.358 48.8133 134.625 43.68 132.358 38.88C130.225 34.08 127.358 29.88 123.758 26.28C120.292 22.68 116.025 19.88 110.958 17.88C105.892 15.7467 99.8918 14.68 92.9584 14.68C82.8251 14.68 74.6251 16.7467 68.3584 20.88C62.0918 25.0133 57.2251 30.48 53.7584 37.28C50.4251 43.9467 48.1584 51.5467 46.9584 60.08C45.7584 68.6133 45.1584 77.3467 45.1584 86.28C45.1584 90.8495 45.3054 95.3162 45.5992 99.68H58.2968C58.0712 95.8492 57.9584 91.8492 57.9584 87.68C57.9584 79.9467 58.4251 72.3467 59.3584 64.88C60.4251 57.4133 62.2251 50.7467 64.7584 44.88C67.2918 39.0133 70.7584 34.3467 75.1584 30.88C79.6918 27.28 85.4918 25.48 92.5584 25.48C100.025 25.48 106.025 27.2133 110.558 30.68C115.225 34.1467 118.825 38.7467 121.358 44.48C123.892 50.2133 125.558 56.7467 126.358 64.08ZM218.298 99.68C221.776 97.5606 225.174 95.3606 228.491 93.08C232.891 90.1467 236.758 86.8133 240.091 83.08C243.558 79.3467 246.291 75.08 248.291 70.28C250.425 65.48 251.491 59.9467 251.491 53.68C251.491 48.3467 250.558 43.28 248.691 38.48C246.825 33.68 244.025 29.5467 240.291 26.08C236.691 22.6133 232.158 19.88 226.691 17.88C221.358 15.7467 215.158 14.68 208.091 14.68C201.158 14.68 194.825 15.8133 189.091 18.08C183.491 20.2133 178.691 23.3467 174.691 27.48C170.691 31.48 167.625 36.3467 165.491 42.08C163.358 47.68 162.291 53.9467 162.291 60.88H175.891C175.625 56.08 176.225 51.5467 177.691 47.28C179.158 43.0133 181.225 39.28 183.891 36.08C186.691 32.88 189.958 30.3467 193.691 28.48C197.558 26.48 201.825 25.48 206.491 25.48C210.891 25.48 214.958 26.1467 218.691 27.48C222.425 28.68 225.691 30.5467 228.491 33.08C231.291 35.6133 233.491 38.68 235.091 42.28C236.691 45.88 237.491 49.9467 237.491 54.48C237.491 60.08 236.491 64.8133 234.491 68.68C232.491 72.5467 229.758 76.0133 226.291 79.08C222.825 82.1467 218.825 85.0133 214.291 87.68C209.758 90.2133 204.958 93.08 199.891 96.28C198.114 97.3559 196.32 98.4892 194.509 99.68H218.298Z" fill="#005DF3"/>
</svg>
