<svg width="70" height="67" viewBox="0 0 70 67" fill="none" xmlns="http://www.w3.org/2000/svg">
<path id="Union" fill-rule="evenodd" clip-rule="evenodd" d="M6.6844 12.7959L24.1844 0H45.8156L63.3156 12.7959L70 33.5L63.3156 54.2041L45.8156 67H24.1844L6.6844 54.2041L0 33.5L6.6844 12.7959ZM35 3.53668L26.8774 0.8806L43.1226 0.8806L35 3.53668ZM33.5842 3.99964L24.5186 1.03521L18.9158 8.7962L33.5842 3.99964ZM19.3139 9.59192L34.0494 4.77344L28.3681 12.6692L19.3139 9.59192ZM17.7684 10.3855L8.31547 23.4797L17.7291 20.4443L17.7684 10.3855ZM17.7255 21.3702L8.14849 24.4582L14.017 32.6142L17.7016 27.4935L17.7255 21.3702ZM18.5814 26.2708L18.6016 21.0877L23.4313 19.5304L18.5814 26.2708ZM17.6957 29.0031L14.5572 33.3649L17.6618 37.6797L17.6957 29.0031ZM18.5321 38.8892L18.5755 27.7804L24.8379 19.0768L34.9207 15.8258L45.6057 19.4573L51.8539 28.1411L51.9401 39.1132L41.7075 52.9513L24.7058 47.4693L18.5321 38.8892ZM17.656 39.173L14.017 34.1156L8.23088 42.1572L17.6325 45.1886L17.656 39.173ZM18.5064 45.4704L18.5262 40.3825L23.2991 47.0157L18.5064 45.4704ZM17.6289 46.1121L7.92854 42.9844L17.5888 56.3657L17.6289 46.1121ZM18.4608 57.1291L18.5028 46.3939L24.1654 48.2198L34.3036 62.3097L18.4608 57.1291ZM47.0357 19.9433L51.842 26.6231L51.8022 21.5634L47.0357 19.9433ZM51.7949 20.6314L46.1504 18.713L42.3494 13.4304L51.7146 10.4107L51.7949 20.6314ZM52.6796 21.8616L52.7267 27.8526L56.4453 33.0207L62.2833 25.1257L52.6796 21.8616ZM62.1753 24.1595L52.6723 20.9296L52.5934 10.8867L62.1753 24.1595ZM44.7204 18.227L36.3241 15.3733L41.4726 13.7132L44.7204 18.227ZM34.9279 14.8987L40.9325 12.9626L35.0849 4.83571L29.2362 12.9642L34.9279 14.8987ZM27.8308 13.416L24.2976 18.3264L18.6052 20.1618L18.6438 10.2936L27.8308 13.416ZM28.6988 13.7111L33.5246 15.3512L25.7043 17.8728L28.6988 13.7111ZM42.5882 53.2353L51.9516 40.5727L52.0751 56.2942L42.5882 53.2353ZM52.8174 39.4018L52.9449 55.6264L62.3358 42.6182L62.2931 42.6493L56.4356 34.5087L52.8174 39.4018ZM52.7386 29.3706L52.806 37.9423L55.8977 33.7612L52.7386 29.3706ZM36.1727 4.84608L51.0337 9.7056L41.8094 12.6799L36.1727 4.84608ZM7.55937 25.1409V41.589L13.4769 33.3649L7.55937 25.1409ZM35.9361 62.2313L51.6669 57.0873L42.0361 53.982L35.9361 62.2313ZM41.1554 53.698L35.0897 61.9008L25.5721 48.6733L41.1554 53.698ZM56.9832 33.7683L62.4406 41.3529V26.3879L56.9832 33.7683ZM17.5 9.25916L22.5201 2.30544L9.3774 11.9152L17.5 9.25916ZM9.3774 55.0848L22.5201 64.6946L17.5 57.7408L9.3774 55.0848ZM16.625 56.5288L7.55937 43.9712V53.5643L16.625 56.5288ZM6.68437 42.7591V51.3544L1.66435 35.8054L6.68437 42.7591ZM6.68437 25.739L1.08156 33.5L6.68437 41.261V25.739ZM6.68437 24.2409L1.66435 31.1946L6.68437 15.6456V24.2409ZM7.55937 23.0288V13.4357L16.625 10.4712L7.55937 23.0288ZM18.9158 58.2038L24.5186 65.9648L33.5842 63.0004L18.9158 58.2038ZM35 63.4633L26.8774 66.1194H43.1226L35 63.4633ZM47.4799 64.6946L60.6226 55.0847L52.5 57.7408L47.4799 64.6946ZM51.0842 58.2038L36.4158 63.0004L45.4813 65.9648L51.0842 58.2038ZM53.375 56.5288L62.4406 53.5643V43.9712L53.375 56.5288ZM63.3156 42.7591V51.3545L68.3357 35.8054L63.3156 42.7591ZM68.3357 31.1946L63.3156 15.6455V24.2409L68.3357 31.1946ZM63.3156 41.261L68.9184 33.5L63.3156 25.739V41.261ZM62.4406 23.0288V13.4357L53.375 10.4712L62.4406 23.0288ZM52.5 9.25916L60.6226 11.9153L47.4799 2.30539L52.5 9.25916ZM51.0842 8.7962L36.4158 3.99964L45.4813 1.03521L51.0842 8.7962Z" fill="url(#paint0_radial_45_442)"/>
<defs>
<radialGradient id="paint0_radial_45_442" cx="0" cy="0" r="1" gradientUnits="userSpaceOnUse" gradientTransform="translate(35.9599 33.1448) rotate(57.3549) scale(39.7407 41.6753)">
<stop stop-color="white"/>
<stop offset="1" stop-color="white" stop-opacity="0"/>
</radialGradient>
</defs>
</svg>
