<svg width="70" height="69" viewBox="0 0 70 69" fill="none" xmlns="http://www.w3.org/2000/svg">
<g id="Union">
<path fill-rule="evenodd" clip-rule="evenodd" d="M35 26.6795L40.7112 28.7601L43.75 34.0284L42.6946 40.0192L38.0388 43.9295H31.9612L27.3054 40.0192L26.25 34.0284L29.2888 28.7601L35 26.6795ZM30.0486 29.6663L35 27.8625L39.9514 29.6663L42.5861 34.2338L41.6711 39.4277L37.6346 42.8178H32.3654L28.3289 39.4277L27.4139 34.2338L30.0486 29.6663Z" fill="url(#paint0_radial_45_437)"/>
<path fill-rule="evenodd" clip-rule="evenodd" d="M43.5667 25.3538L35 22.2329L26.4333 25.3538L21.875 33.2562L23.4581 42.2425L30.4417 48.1079H39.5583L46.5419 42.2425L48.125 33.2562L43.5667 25.3538ZM35 23.4159L27.193 26.26L23.0389 33.4616L24.4816 41.651L30.846 46.9963H39.154L45.5184 41.651L46.9611 33.4616L42.807 26.26L35 23.4159Z" fill="url(#paint1_radial_45_437)"/>
<path fill-rule="evenodd" clip-rule="evenodd" d="M35 17.7863L46.4223 21.9475L52.5 32.4841L50.3892 44.4658L41.0777 52.2863H28.9223L19.6108 44.4658L17.5 32.4841L23.5777 21.9475L35 17.7863ZM24.3374 22.8538L35 18.9693L45.6626 22.8538L51.3361 32.6895L49.3657 43.8743L40.6735 51.1747H29.3265L20.6343 43.8743L18.6639 32.6895L24.3374 22.8538Z" fill="url(#paint2_radial_45_437)"/>
<path fill-rule="evenodd" clip-rule="evenodd" d="M49.2779 18.5413L35 13.3397L20.7221 18.5413L13.125 31.7119L15.7634 46.6891L27.4029 56.4647H42.5971L54.2366 46.6891L56.875 31.7119L49.2779 18.5413ZM35 14.5227L21.4818 19.4475L14.2889 31.9174L16.787 46.0976L27.8071 55.3531H42.1929L53.213 46.0976L55.7111 31.9174L48.5182 19.4475L35 14.5227Z" fill="url(#paint3_radial_45_437)"/>
<path fill-rule="evenodd" clip-rule="evenodd" d="M35 8.89316L52.1335 15.135L61.25 30.9398L58.0839 48.9124L44.1165 60.6432H25.8835L11.9161 48.9124L8.75 30.9398L17.8665 15.135L35 8.89316ZM18.6262 16.0412L35 10.0761L51.3738 16.0412L60.0861 31.1452L57.0603 48.3209L43.7123 59.5315H26.2877L12.9397 48.3209L9.91395 31.1452L18.6262 16.0412Z" fill="url(#paint4_radial_45_437)"/>
<path fill-rule="evenodd" clip-rule="evenodd" d="M54.9891 11.7287L35 4.44658L15.011 11.7287L4.375 30.1677L8.06883 51.1357L24.364 64.8216H45.636L61.9312 51.1357L65.625 30.1677L54.9891 11.7287ZM35 5.62957L15.7707 12.6349L5.53894 30.3731L9.09238 50.5442L24.7683 63.7099H45.2317L60.9076 50.5442L64.4611 30.3731L54.2293 12.6349L35 5.62957Z" fill="url(#paint5_radial_45_437)"/>
<path fill-rule="evenodd" clip-rule="evenodd" d="M57.8446 8.32242L35 0L12.1554 8.32242L0 29.3955L4.22152 53.359L22.8446 69H47.1554L65.7785 53.359L70 29.3955L57.8446 8.32242ZM35 1.18299L12.9151 9.22864L1.16394 29.6009L5.24507 52.7675L23.2489 67.8884H46.7511L64.7549 52.7675L68.8361 29.6009L57.0849 9.22864L35 1.18299Z" fill="url(#paint6_radial_45_437)"/>
</g>
<defs>
<radialGradient id="paint0_radial_45_437" cx="0" cy="0" r="1" gradientUnits="userSpaceOnUse" gradientTransform="translate(35 37.2401) rotate(71.5809) scale(40.4226 40.8442)">
<stop stop-color="white"/>
<stop offset="1" stop-color="#005DF3"/>
</radialGradient>
<radialGradient id="paint1_radial_45_437" cx="0" cy="0" r="1" gradientUnits="userSpaceOnUse" gradientTransform="translate(35 37.2401) rotate(71.5809) scale(40.4226 40.8442)">
<stop stop-color="white"/>
<stop offset="1" stop-color="#005DF3"/>
</radialGradient>
<radialGradient id="paint2_radial_45_437" cx="0" cy="0" r="1" gradientUnits="userSpaceOnUse" gradientTransform="translate(35 37.2401) rotate(71.5809) scale(40.4226 40.8442)">
<stop stop-color="white"/>
<stop offset="1" stop-color="#005DF3"/>
</radialGradient>
<radialGradient id="paint3_radial_45_437" cx="0" cy="0" r="1" gradientUnits="userSpaceOnUse" gradientTransform="translate(35 37.2401) rotate(71.5809) scale(40.4226 40.8442)">
<stop stop-color="white"/>
<stop offset="1" stop-color="#005DF3"/>
</radialGradient>
<radialGradient id="paint4_radial_45_437" cx="0" cy="0" r="1" gradientUnits="userSpaceOnUse" gradientTransform="translate(35 37.2401) rotate(71.5809) scale(40.4226 40.8442)">
<stop stop-color="white"/>
<stop offset="1" stop-color="#005DF3"/>
</radialGradient>
<radialGradient id="paint5_radial_45_437" cx="0" cy="0" r="1" gradientUnits="userSpaceOnUse" gradientTransform="translate(35 37.2401) rotate(71.5809) scale(40.4226 40.8442)">
<stop stop-color="white"/>
<stop offset="1" stop-color="#005DF3"/>
</radialGradient>
<radialGradient id="paint6_radial_45_437" cx="0" cy="0" r="1" gradientUnits="userSpaceOnUse" gradientTransform="translate(35 37.2401) rotate(71.5809) scale(40.4226 40.8442)">
<stop stop-color="white"/>
<stop offset="1" stop-color="#005DF3"/>
</radialGradient>
</defs>
</svg>
