<svg width="60" height="69" viewBox="0 0 60 69" fill="none" xmlns="http://www.w3.org/2000/svg">
<path id="Union" fill-rule="evenodd" clip-rule="evenodd" d="M41.25 8.62501V15.0935L46.875 11.8591L60 17.2497L58.125 31.2654L52.4998 34.4998L58.125 37.7343L60 51.75L46.875 57.1406L41.25 53.9062V60.375L30 69L18.75 60.375V53.9062L13.125 57.1406L2.66962e-06 51.75L1.875 37.7343L7.5002 34.4998L1.875 31.2654L0 17.2497L13.125 11.8591L18.75 15.0935V8.62501L30 0L41.25 8.62501ZM19.6875 9.08455L30 1.17829L40.3125 9.08455V15.6325L31.875 20.4841L30.1756 33.1871L30 33.3217L29.8244 33.1871L28.125 20.4841L19.6875 15.6325V9.08455ZM8.4377 35.0389L2.74335 38.3132L1.0246 51.1608L13.0559 56.1022L18.75 52.8281V43.125L28.9461 35.3079L28.9754 35.0891L28.7702 35.0048L16.875 39.8904L8.4377 35.0389ZM27.5407 34.4998L16.9441 38.852L9.3752 34.4998L16.9442 30.1477L27.5407 34.4998ZM28.7702 33.9949L16.875 29.1093L8.4377 33.9608L2.74335 30.6865L1.0246 17.8389L13.0558 12.8975L18.75 16.1716V25.875L28.9462 33.6921L28.9754 33.9106L28.7702 33.9949ZM28.7705 36.6209L19.6875 43.5845V52.289L27.2567 47.9368L28.7705 36.6209ZM19.6875 53.3672L28.125 48.5156L29.8244 35.8129L30 35.6783L30.1756 35.8129L31.875 48.5156L40.3125 53.3672V59.9155L30 67.8217L19.6875 59.9155V53.3672ZM32.7434 21.0629L40.3125 16.7107V25.4155L31.2295 32.3791L32.7434 21.0629ZM41.25 25.875L31.0538 33.6921L31.0246 33.9106L31.2298 33.9949L43.125 29.1093L51.5623 33.9608L57.2567 30.6865L58.9754 17.8389L46.9442 12.8975L41.25 16.1716V25.875ZM43.125 39.8904L31.2298 35.0048L31.0246 35.0891L31.0539 35.3079L41.25 43.125V52.8281L46.9441 56.1022L58.9754 51.1608L57.2566 38.3132L51.5623 35.0389L43.125 39.8904ZM43.0559 38.852L50.6248 34.4998L43.0558 30.1477L32.4593 34.4998L43.0559 38.852ZM31.2295 36.6209L40.3125 43.5845V52.289L32.7434 47.9368L31.2295 36.6209ZM27.2566 21.0629L28.7705 32.3791L19.6875 25.4155V16.7107L27.2566 21.0629Z" fill="url(#paint0_radial_45_447)"/>
<defs>
<radialGradient id="paint0_radial_45_447" cx="0" cy="0" r="1" gradientUnits="userSpaceOnUse" gradientTransform="translate(30 34.5) rotate(56.3805) scale(49.9503 43.3269)">
<stop stop-color="white"/>
<stop offset="1" stop-color="#005DF3"/>
</radialGradient>
</defs>
</svg>
