<svg width="80" height="80" viewBox="0 0 80 80" fill="none" xmlns="http://www.w3.org/2000/svg">
<g id="Group 211">
<g id="Union">
<path fill-rule="evenodd" clip-rule="evenodd" d="M27.5977 32.5979H51.5977V56.5979H27.5977V32.5979ZM28.5977 33.5979H50.5977V55.5979H28.5977V33.5979Z" fill="url(#paint0_radial_36_1852)"/>
<path fill-rule="evenodd" clip-rule="evenodd" d="M23.5977 28.5979V60.5979H55.5977V28.5979H23.5977ZM54.5977 29.5979H24.5977V59.5979H54.5977V29.5979Z" fill="url(#paint1_radial_36_1852)"/>
<path fill-rule="evenodd" clip-rule="evenodd" d="M19.5977 24.5979H59.5977V64.5979H19.5977V24.5979ZM20.5977 25.5979H58.5977V63.5979H20.5977V25.5979Z" fill="url(#paint2_radial_36_1852)"/>
<path fill-rule="evenodd" clip-rule="evenodd" d="M15.5977 20.5979V68.5979H63.5977V20.5979H15.5977ZM62.5977 21.5979H16.5977V67.5979H62.5977V21.5979Z" fill="url(#paint3_radial_36_1852)"/>
<path fill-rule="evenodd" clip-rule="evenodd" d="M11.5977 16.5979V72.5979H67.5977V16.5979H11.5977ZM66.5977 17.5979H12.5977V71.5979H66.5977V17.5979Z" fill="url(#paint4_radial_36_1852)"/>
</g>
<g id="Union_2">
<path fill-rule="evenodd" clip-rule="evenodd" d="M22.6274 39.598L39.598 22.6274L56.5686 39.598L39.598 56.5685L22.6274 39.598ZM24.0417 39.598L39.598 24.0416L55.1544 39.598L39.598 55.1543L24.0417 39.598Z" fill="url(#paint5_radial_36_1852)"/>
<path fill-rule="evenodd" clip-rule="evenodd" d="M16.9706 39.598L39.598 62.2254L62.2254 39.598L39.598 16.9706L16.9706 39.598ZM39.598 18.3848L18.3848 39.598L39.598 60.8112L60.8112 39.598L39.598 18.3848Z" fill="url(#paint6_radial_36_1852)"/>
<path fill-rule="evenodd" clip-rule="evenodd" d="M11.3137 39.598L39.598 11.3137L67.8823 39.598L39.598 67.8822L11.3137 39.598ZM12.7279 39.598L39.598 12.7279L66.468 39.598L39.598 66.468L12.7279 39.598Z" fill="url(#paint7_radial_36_1852)"/>
<path fill-rule="evenodd" clip-rule="evenodd" d="M5.65686 39.598L39.598 73.5391L73.5391 39.598L39.598 5.65685L5.65686 39.598ZM39.598 7.07107L7.07107 39.598L39.598 72.1249L72.1249 39.598L39.598 7.07107Z" fill="url(#paint8_radial_36_1852)"/>
<path fill-rule="evenodd" clip-rule="evenodd" d="M0 39.598L39.598 79.196L79.196 39.598L39.598 0L0 39.598ZM39.598 1.41421L1.41421 39.598L39.598 77.7817L77.7817 39.598L39.598 1.41421Z" fill="url(#paint9_radial_36_1852)"/>
</g>
</g>
<defs>
<radialGradient id="paint0_radial_36_1852" cx="0" cy="0" r="1" gradientUnits="userSpaceOnUse" gradientTransform="translate(42.8477 47.0979) rotate(90.3769) scale(38.0008)">
<stop stop-color="white"/>
<stop offset="1" stop-color="#005DF3"/>
</radialGradient>
<radialGradient id="paint1_radial_36_1852" cx="0" cy="0" r="1" gradientUnits="userSpaceOnUse" gradientTransform="translate(42.8477 47.0979) rotate(90.3769) scale(38.0008)">
<stop stop-color="white"/>
<stop offset="1" stop-color="#005DF3"/>
</radialGradient>
<radialGradient id="paint2_radial_36_1852" cx="0" cy="0" r="1" gradientUnits="userSpaceOnUse" gradientTransform="translate(42.8477 47.0979) rotate(90.3769) scale(38.0008)">
<stop stop-color="white"/>
<stop offset="1" stop-color="#005DF3"/>
</radialGradient>
<radialGradient id="paint3_radial_36_1852" cx="0" cy="0" r="1" gradientUnits="userSpaceOnUse" gradientTransform="translate(42.8477 47.0979) rotate(90.3769) scale(38.0008)">
<stop stop-color="white"/>
<stop offset="1" stop-color="#005DF3"/>
</radialGradient>
<radialGradient id="paint4_radial_36_1852" cx="0" cy="0" r="1" gradientUnits="userSpaceOnUse" gradientTransform="translate(42.8477 47.0979) rotate(90.3769) scale(38.0008)">
<stop stop-color="white"/>
<stop offset="1" stop-color="#005DF3"/>
</radialGradient>
<radialGradient id="paint5_radial_36_1852" cx="0" cy="0" r="1" gradientUnits="userSpaceOnUse" gradientTransform="translate(39.598 41.5979) rotate(57.5288) scale(39.1152 39.1152)">
<stop stop-color="white"/>
<stop offset="1" stop-color="#005DF3"/>
</radialGradient>
<radialGradient id="paint6_radial_36_1852" cx="0" cy="0" r="1" gradientUnits="userSpaceOnUse" gradientTransform="translate(39.598 41.5979) rotate(57.5288) scale(39.1152 39.1152)">
<stop stop-color="white"/>
<stop offset="1" stop-color="#005DF3"/>
</radialGradient>
<radialGradient id="paint7_radial_36_1852" cx="0" cy="0" r="1" gradientUnits="userSpaceOnUse" gradientTransform="translate(39.598 41.5979) rotate(57.5288) scale(39.1152 39.1152)">
<stop stop-color="white"/>
<stop offset="1" stop-color="#005DF3"/>
</radialGradient>
<radialGradient id="paint8_radial_36_1852" cx="0" cy="0" r="1" gradientUnits="userSpaceOnUse" gradientTransform="translate(39.598 41.5979) rotate(57.5288) scale(39.1152 39.1152)">
<stop stop-color="white"/>
<stop offset="1" stop-color="#005DF3"/>
</radialGradient>
<radialGradient id="paint9_radial_36_1852" cx="0" cy="0" r="1" gradientUnits="userSpaceOnUse" gradientTransform="translate(39.598 41.5979) rotate(57.5288) scale(39.1152 39.1152)">
<stop stop-color="white"/>
<stop offset="1" stop-color="#005DF3"/>
</radialGradient>
</defs>
</svg>
