<svg width="161" height="24" viewBox="0 0 161 24" fill="none" xmlns="http://www.w3.org/2000/svg">
<g clip-path="url(#clip0_2840_1033)">
<path d="M0 1.7674H7.41265C15.3795 1.7674 19.259 5.57808 19.259 12.282C19.259 20.2562 14.3404 23.6435 7.34337 23.6435H0V1.7674ZM3.87952 20.0445H7.34337C12.6084 20.0445 15.241 17.3629 15.241 12.6349C15.241 7.90683 12.8163 5.36637 7.34337 5.36637H3.87952V20.0445ZM66.0903 23.6435V7.20114L59.1626 18.8449H57.2229L50.1566 7.34228V23.6435H46.3464V1.7674H51.1958L58.3313 13.6934L65.3976 1.7674H69.9006V23.6435H66.0903ZM92 16.4455V21.2442C90.9608 22.585 88.1205 23.9963 84.3795 23.9963C77.3825 23.9257 72.741 19.7622 72.741 12.7054C72.741 5.64864 77.3132 1.41456 84.4488 1.41456C86.9682 1.32759 89.4549 2.01618 91.5843 3.39047V8.82419C90.7748 7.66021 89.7062 6.70808 88.466 6.04573C87.2257 5.38338 85.8491 5.02966 84.4488 5.01353C79.8072 5.01353 76.8976 8.11852 76.8976 12.7054C76.8976 17.2924 79.4608 20.3268 84.3795 20.3974C88.1205 20.3974 90.753 18.6332 92 16.4455ZM98.5813 1.7674V20.0445H110.22V23.6435H94.7711V1.7674H98.5813ZM116.247 1.7674V23.6435H112.367V1.7674H116.247ZM138.346 16.4455V21.2442C137.238 22.585 134.467 23.9963 130.726 23.9963C123.729 23.9257 119.087 19.7622 119.087 12.7054C119.087 5.64864 123.66 1.41456 130.795 1.41456C133.313 1.34055 135.796 2.02813 137.931 3.39047V8.82419C137.113 7.66831 136.043 6.72219 134.805 6.06076C133.566 5.39934 132.193 5.04079 130.795 5.01353C126.084 5.01353 123.175 8.11852 123.175 12.7054C123.175 17.2924 125.738 20.3268 130.726 20.3974C134.467 20.3974 137.099 18.6332 138.346 16.4455ZM144.928 14.1874V23.6435H141.048V1.7674H144.928V10.9412H148.114L155.042 1.7674H159.684L151.509 12.1409L161 23.6435H156.081L148.322 14.1874H144.928Z" fill="#0C0B1C" fill-opacity="0.2"/>
<path d="M24.1085 23.5727H34.9157V18.9152H26.4639V9.45907L32.6988 5.01328L39.0031 9.45907V13.6226H43.5753V8.32998C43.5755 7.90167 43.475 7.47954 43.2821 7.09894C43.0893 6.71834 42.8097 6.39034 42.4669 6.14237L34.0151 0.426358C33.6405 0.155964 33.1926 0.0107422 32.7335 0.0107422C32.2743 0.0107422 31.8265 0.155964 31.4518 0.426358L23.2079 6.00122C22.8067 6.23713 22.4738 6.57665 22.2427 6.98553C22.0116 7.39441 21.8905 7.85818 21.8916 8.32998V21.3851C21.9408 21.9604 22.192 22.4984 22.5993 22.9003C23.0065 23.3021 23.5424 23.5409 24.1085 23.5727Z" fill="#0C0B1C" fill-opacity="0.2"/>
<path d="M34.916 23.5729V16.0927C34.9158 15.4684 35.1544 14.8685 35.5812 14.4206C36.0081 13.9726 36.5895 13.7117 37.2022 13.6934H43.5757L34.916 23.5729Z" fill="#11D546"/>
</g>
<defs>
<clipPath id="clip0_2840_1033">
<rect width="161" height="24" fill="white"/>
</clipPath>
</defs>
</svg>
