<svg width="249" height="100" viewBox="0 0 249 100" fill="none" xmlns="http://www.w3.org/2000/svg">
<path id="Subtract" fill-rule="evenodd" clip-rule="evenodd" d="M0.360352 99.48H7.08035L35.2804 0H28.5604L0.360352 99.48ZM126.719 64.08C127.652 71.28 128.119 78.68 128.119 86.28C128.119 90.6946 127.963 95.1613 127.65 99.68H140.537C140.792 95.7563 140.919 91.7563 140.919 87.68C140.919 82.2133 140.719 76.6133 140.319 70.88C139.919 65.1467 139.119 59.6133 137.919 54.28C136.719 48.8133 134.985 43.68 132.719 38.88C130.585 34.08 127.719 29.88 124.119 26.28C120.652 22.68 116.385 19.88 111.319 17.88C106.252 15.7467 100.252 14.68 93.3188 14.68C83.1855 14.68 74.9855 16.7467 68.7188 20.88C62.4521 25.0133 57.5855 30.48 54.1188 37.28C50.7855 43.9467 48.5188 51.5467 47.3188 60.08C46.1188 68.6133 45.5188 77.3467 45.5188 86.28C45.5188 90.8495 45.6657 95.3162 45.9596 99.68H58.6571C58.4316 95.8492 58.3188 91.8492 58.3188 87.68C58.3188 79.9467 58.7855 72.3467 59.7188 64.88C60.7855 57.4133 62.5855 50.7467 65.1188 44.88C67.6521 39.0133 71.1188 34.3467 75.5188 30.88C80.0521 27.28 85.8521 25.48 92.9188 25.48C100.385 25.48 106.385 27.2133 110.919 30.68C115.585 34.1467 119.185 38.7467 121.719 44.48C124.252 50.2133 125.919 56.7467 126.719 64.08ZM248.414 99.68C247.857 98.3809 247.203 97.1143 246.452 95.88C244.585 92.68 241.985 89.8133 238.652 87.28C235.452 84.6133 231.318 82.48 226.252 80.88C233.052 77.9467 238.052 73.8133 241.252 68.48C244.585 63.1467 246.252 56.8133 246.252 49.48C246.252 43.6133 245.185 38.48 243.052 34.08C240.918 29.68 238.052 26.08 234.452 23.28C230.852 20.3467 226.585 18.2133 221.652 16.88C216.852 15.4133 211.652 14.68 206.052 14.68C200.185 14.68 194.452 15.28 188.852 16.48C183.385 17.5467 178.452 20.08 174.052 24.08C169.385 28.48 165.918 33.28 163.652 38.48C161.518 43.5467 160.452 49.28 160.452 55.68H173.252C173.252 51.28 173.985 47.28 175.452 43.68C176.918 39.9467 178.985 36.7467 181.652 34.08C184.318 31.28 187.452 29.1467 191.052 27.68C194.785 26.2133 198.918 25.48 203.452 25.48C207.452 25.48 211.252 25.9467 214.852 26.88C218.585 27.8133 221.785 29.28 224.452 31.28C227.252 33.28 229.452 35.88 231.052 39.08C232.652 42.1467 233.452 45.88 233.452 50.28C233.452 55.7467 232.452 60.2133 230.452 63.68C228.452 67.1467 225.652 69.9467 222.052 72.08C218.585 74.08 214.385 75.48 209.452 76.28C204.518 76.9467 199.052 77.28 193.052 77.28V87.68C199.185 87.28 204.985 87.48 210.452 88.28C215.918 88.9467 220.652 90.4133 224.652 92.68C228.042 94.4301 230.85 96.7634 233.074 99.68H248.414Z" fill="#005DF3"/>
</svg>
