<svg width="1439" height="402" viewBox="0 0 1439 402" fill="none" xmlns="http://www.w3.org/2000/svg">
<path opacity="0.1" d="M182.59 401.74V369.303C173.395 381.678 161.172 391.449 147.109 397.666C131.301 404.588 114.198 408.012 96.9584 407.705C68.4016 407.705 44.9392 400.234 26.5712 385.29C8.20317 370.346 -0.9872 349.481 -1 322.695C-1 293.219 8.67679 271.691 28.0304 258.112C47.384 244.532 73.4895 236.99 106.347 235.484C119.634 234.686 132.344 234.39 144.478 234.595C156.613 234.801 168.338 235.097 179.653 235.484V213.068C179.653 196.566 174.77 184.57 165.003 177.079C155.237 169.587 142.526 165.855 126.872 165.88C111.218 165.88 98.8976 169.813 89.9119 177.677C80.9264 185.542 74.4752 196.161 70.5584 209.535L8.38883 198.915C13.147 173.874 26.6759 151.377 46.52 135.51C66.8336 118.777 94.008 110.41 128.043 110.41C161.656 110.41 189.618 118.178 211.928 133.714C234.238 149.25 245.381 175.894 245.355 213.647V401.798L182.59 401.74ZM179.653 280.817C170.283 280.431 159.922 280.335 148.568 280.528C137.214 280.721 126.072 281.017 115.141 281.416C99.896 281.802 87.8704 285.142 79.064 291.436C70.2576 297.731 65.8608 306.754 65.8736 318.505C65.8736 330.309 69.976 339.447 78.1808 345.922C86.3856 352.396 97.336 355.614 111.032 355.575C130.974 355.575 147.397 350.762 160.299 341.134C173.202 331.506 179.653 318.821 179.653 303.079V280.817Z" fill="#EEEEEE"/>
<path opacity="0.1" d="M321.56 401.739V0.647461H389.028V401.739H321.56Z" fill="#EEEEEE"/>
<path opacity="0.1" d="M634.232 401.74H587.307C548.984 401.74 522.001 393.579 506.36 377.258C490.718 360.937 482.904 333.906 482.917 296.167V176.461H437.163V116.299H482.84V43.7031H550.289V116.26H632.408V176.422H550.366V294.97C550.366 312.282 553.982 324.375 561.214 331.248C568.446 338.122 579.294 341.565 593.758 341.578H634.232V401.74Z" fill="#EEEEEE"/>
<path opacity="0.1" d="M935.154 273.152H736.28C737.842 299.102 745.08 318.859 757.996 332.426C770.911 345.993 787.723 352.776 808.434 352.776C827.979 352.776 842.84 348.271 853.016 339.261C863.192 330.251 869.842 320.597 872.965 310.3L933.368 321.498C927.109 345.092 913.72 365.345 893.202 382.258C872.684 399.172 844.056 407.635 807.32 407.648C764.696 407.648 731.167 394.474 706.732 368.125C682.296 341.777 670.072 305.402 670.06 259C670.06 235.02 673.675 213.686 680.907 194.996C687.345 177.577 697.339 161.707 710.245 148.407C722.569 136 737.363 126.354 753.656 120.103C770.817 113.526 789.053 110.251 807.416 110.449C848.082 110.449 879.557 123.32 901.842 149.064C924.127 174.807 935.276 209.708 935.288 253.768L935.154 273.152ZM807.32 165.205C790.993 164.905 775.091 170.447 762.45 180.844C749.74 191.27 741.42 206.51 737.49 226.564H870.68C869.132 207.681 863.173 192.737 852.805 181.732C842.437 170.727 827.276 165.217 807.32 165.205Z" fill="#EEEEEE"/>
<path opacity="0.1" d="M995.48 401.739V116.26H1060.76V154.006C1070.53 139.062 1082.74 129.035 1097.41 123.925C1110.87 119.009 1125.05 116.398 1139.37 116.202H1162.23V177.561H1138.19C1120.32 177.297 1102.63 181.265 1086.57 189.146C1071.32 196.869 1063.7 208.961 1063.7 225.424V401.778L995.48 401.739Z" fill="#EEEEEE"/>
<path opacity="0.1" d="M1376.24 401.74V369.303C1367.03 381.652 1354.81 391.402 1340.75 397.608C1324.94 404.528 1307.84 407.952 1290.6 407.648C1262.05 407.648 1238.58 400.176 1220.22 385.232C1201.85 370.288 1192.66 349.442 1192.64 322.695C1192.64 293.219 1202.32 271.691 1221.68 258.112C1241.03 244.532 1267.13 236.99 1299.99 235.484C1313.28 234.686 1325.98 234.39 1338.1 234.595C1350.23 234.801 1361.96 235.097 1373.3 235.484V213.068C1373.3 196.566 1368.41 184.57 1358.65 177.079C1348.88 169.587 1336.17 165.855 1320.52 165.88C1304.88 165.88 1292.56 169.813 1283.56 177.677C1274.17 186.18 1267.44 197.25 1264.2 209.535L1202.03 198.915C1206.79 173.874 1220.32 151.377 1240.16 135.51C1260.48 118.777 1287.65 110.41 1321.69 110.41C1355.3 110.41 1383.26 118.178 1405.55 133.714C1427.85 149.25 1439 175.894 1439 213.647V401.798L1376.24 401.74ZM1373.3 280.817C1363.92 280.431 1353.55 280.335 1342.21 280.528C1330.87 280.721 1319.73 281.017 1308.79 281.416C1293.54 281.802 1281.52 285.142 1272.71 291.436C1263.9 297.731 1259.51 306.779 1259.52 318.583C1259.52 330.386 1263.62 339.525 1271.83 345.999C1280.03 352.474 1290.98 355.691 1304.68 355.653C1324.63 355.653 1341.05 350.839 1353.94 341.211C1366.83 331.583 1373.28 318.898 1373.3 303.156V280.817Z" fill="#EEEEEE"/>
</svg>
