<svg width="19" height="19" viewBox="0 0 19 19" fill="none" xmlns="http://www.w3.org/2000/svg">
<path id="Subtract" fill-rule="evenodd" clip-rule="evenodd" d="M9.56785 19C9.70357 14.7929 9.83928 12.8929 11.3321 11.3321C12.825 9.83928 14.7929 9.77143 19 9.63571C19 13.4357 18.9321 16.2857 17.575 17.6429C16.2179 19 13.5036 19 9.56785 19ZM9.36428 19C5.42857 19 2.71429 19 1.35714 17.6429C0 16.2857 0 13.4357 0 9.63571C4.20714 9.77143 6.10714 9.83928 7.66785 11.3321C9.16071 12.8929 9.22857 14.7929 9.36428 19ZM7.66785 7.66786C6.10714 9.16071 4.20714 9.29643 0 9.43214C0 5.63214 0 2.78214 1.35714 1.425C2.71429 0.0678572 5.42857 0 9.36428 0C9.22857 4.20714 9.16071 6.175 7.66785 7.66786ZM9.56785 0C9.70357 4.20714 9.83928 6.175 11.3321 7.66786C12.825 9.16071 14.7929 9.29643 19 9.43214C19 5.63214 18.9321 2.78214 17.575 1.425C16.2179 0.0678572 13.5036 0 9.56785 0Z" fill="white"/>
</svg>
