<svg width="27" height="19" viewBox="0 0 27 19" fill="none" xmlns="http://www.w3.org/2000/svg">
<g id="&#208;&#161;&#208;&#187;&#208;&#190;&#208;&#185;_1" clip-path="url(#clip0_4211_83)">
<path id="Vector" d="M26.4343 2.97627C26.2793 2.40368 25.978 1.88173 25.5604 1.46213C25.1428 1.04252 24.6233 0.739826 24.0535 0.584025C21.9428 0.00292965 13.4916 0.00292969 13.4916 0.00292969C13.4916 0.00292969 5.04456 0.00292965 2.92964 0.562818C1.79409 0.876694 0.861163 1.81408 0.548781 2.97627C0 5.09706 0 9.49982 0 9.49982C0 9.49982 0 13.9238 0.557223 16.0234C0.712283 16.5959 1.01354 17.1179 1.43114 17.5375C1.84875 17.9571 2.36822 18.2598 2.93809 18.4156C5.07411 18.9967 13.5 18.9967 13.5 18.9967C13.5 18.9967 21.947 18.9967 24.0619 18.4368C24.6318 18.281 25.1512 17.9783 25.5689 17.5587C25.9865 17.1391 26.2877 16.6172 26.4428 16.0446C27 13.9238 27 9.52102 27 9.52102C27 9.52102 27.0127 5.09706 26.4343 2.97627ZM10.8025 13.5632V5.43215L17.8311 9.49982L10.8025 13.5632Z" fill="white"/>
<path id="Vector_2" d="M26.4343 2.97627C26.2793 2.40368 25.978 1.88173 25.5604 1.46213C25.1428 1.04252 24.6233 0.739826 24.0535 0.584025C21.9428 0.00292965 13.4916 0.00292969 13.4916 0.00292969C13.4916 0.00292969 5.04456 0.00292965 2.92964 0.562818C1.79409 0.876694 0.861163 1.81408 0.548781 2.97627C0 5.09706 0 9.49982 0 9.49982C0 9.49982 0 13.9238 0.557223 16.0234C0.712283 16.5959 1.01354 17.1179 1.43114 17.5375C1.84875 17.9571 2.36822 18.2598 2.93809 18.4156C5.07411 18.9967 13.5 18.9967 13.5 18.9967C13.5 18.9967 21.947 18.9967 24.0619 18.4368C24.6318 18.281 25.1512 17.9783 25.5689 17.5587C25.9865 17.1391 26.2877 16.6172 26.4428 16.0446C27 13.9238 27 9.52102 27 9.52102C27 9.52102 27.0127 5.09706 26.4343 2.97627ZM10.8025 13.5632V5.43215L17.8311 9.49982L10.8025 13.5632Z" fill="white"/>
</g>
<defs>
<clipPath id="clip0_4211_83">
<rect width="27" height="19" fill="white"/>
</clipPath>
</defs>
</svg>
