<svg width="294" height="83" viewBox="0 0 294 83" fill="none" xmlns="http://www.w3.org/2000/svg">
<g clip-path="url(#clip0_36_1721)">
<path d="M37.483 81.7952V75.1804C35.6057 77.704 33.1101 79.6966 30.2389 80.9644C27.0114 82.376 23.5195 83.0743 19.9998 83.0118C14.1695 83.0118 9.37925 81.488 5.62911 78.4405C1.87898 75.393 0.00261333 71.138 0 65.6755C0 59.6645 1.97568 55.2743 5.92704 52.505C9.8784 49.7357 15.2083 48.1975 21.9167 47.8904C24.6293 47.7276 27.2244 47.6673 29.7018 47.7093C32.1793 47.7513 34.5731 47.8116 36.8833 47.8904V43.3191C36.8833 39.9539 35.8863 37.5075 33.8923 35.9798C31.8984 34.4521 29.3033 33.6908 26.1072 33.6961C22.9111 33.6961 20.3958 34.498 18.5612 36.1019C16.7266 37.7057 15.4095 39.8713 14.6098 42.5986L1.91689 40.433C2.88835 35.3262 5.6505 30.7385 9.702 27.5026C13.8494 24.0902 19.3975 22.384 26.3463 22.384C33.2089 22.384 38.9178 23.9681 43.4728 27.1364C48.0278 30.3047 50.3027 35.7383 50.2975 43.4372V81.807L37.483 81.7952ZM36.8833 57.1353C34.9703 57.0566 32.8548 57.0369 30.5368 57.0763C28.2188 57.1156 25.9439 57.176 23.7121 57.2574C20.5996 57.3362 18.1444 58.0173 16.3464 59.3009C14.5484 60.5845 13.6508 62.4246 13.6534 64.8211C13.6534 67.2282 14.4909 69.0918 16.1661 70.4122C17.8412 71.7325 20.0769 72.3887 22.8732 72.3809C26.9448 72.3809 30.2977 71.3991 32.9319 69.4357C35.5662 67.4723 36.8833 64.8854 36.8833 61.6751V57.1353Z" fill=""/>
<path d="M65.8564 81.7952V0H79.6313V81.7952H65.8564Z" fill=""/>
<path d="M129.693 81.7952H120.112C112.288 81.7952 106.779 80.131 103.586 76.8026C100.392 73.4742 98.7967 67.9619 98.7994 60.2656V35.8538H89.458V23.5849H98.7837V8.78036H112.555V23.5771H129.32V35.8459H112.57V60.0215C112.57 63.552 113.309 66.0181 114.785 67.4198C116.262 68.8215 118.476 69.5237 121.43 69.5263H129.693V81.7952Z" fill=""/>
<path d="M191.131 55.5722H150.528C150.847 60.8641 152.325 64.8933 154.961 67.66C157.598 70.4266 161.031 71.81 165.259 71.81C169.25 71.81 172.284 70.8912 174.362 69.0538C176.439 67.2164 177.797 65.2477 178.434 63.1477L190.767 65.4314C189.489 70.2429 186.755 74.3732 182.566 77.8224C178.377 81.2715 172.532 82.9974 165.032 83C156.329 83 149.484 80.3134 144.495 74.9402C139.506 69.567 137.01 62.149 137.008 52.6861C137.008 47.7959 137.746 43.4451 139.223 39.6337C140.537 36.0814 142.577 32.845 145.212 30.1328C147.729 27.6026 150.749 25.6354 154.075 24.3606C157.579 23.0194 161.302 22.3516 165.052 22.3919C173.354 22.3919 179.78 25.0168 184.33 30.2667C188.88 35.5165 191.156 42.634 191.159 51.6191L191.131 55.5722ZM165.032 33.5583C161.698 33.4972 158.452 34.6275 155.871 36.7476C153.276 38.8738 151.577 41.9817 150.775 46.0713H177.968C177.652 42.2205 176.435 39.173 174.318 36.9287C172.202 34.6844 169.106 33.5609 165.032 33.5583Z" fill=""/>
<path d="M203.448 81.7952V23.577H216.776V31.2746C218.77 28.2271 221.265 26.1823 224.26 25.1402C227.007 24.1376 229.902 23.6052 232.825 23.5652H237.493V36.0782H232.586C228.936 36.0243 225.325 36.8336 222.045 38.4407C218.932 40.0156 217.376 42.4817 217.376 45.839V81.803L203.448 81.7952Z" fill=""/>
<path d="M281.185 81.7952V75.1804C279.305 77.6988 276.81 79.687 273.941 80.9526C270.713 82.3638 267.222 83.062 263.702 83C257.872 83 253.081 81.4763 249.331 78.4287C245.581 75.3812 243.705 71.1301 243.702 65.6755C243.702 59.6645 245.678 55.2743 249.629 52.505C253.581 49.7357 258.91 48.1975 265.619 47.8904C268.332 47.7276 270.925 47.6673 273.4 47.7093C275.875 47.7513 278.27 47.8116 280.585 47.8904V43.3191C280.585 39.9539 279.588 37.5075 277.595 35.9798C275.601 34.4521 273.005 33.6908 269.809 33.6961C266.616 33.6961 264.101 34.498 262.263 36.1019C260.346 37.8359 258.973 40.0934 258.312 42.5986L245.619 40.433C246.59 35.3262 249.353 30.7385 253.404 27.5026C257.552 24.0902 263.1 22.384 270.049 22.384C276.911 22.384 282.619 23.9681 287.171 27.1364C291.723 30.3047 294 35.7383 294 43.4372V81.807L281.185 81.7952ZM280.585 57.1353C278.67 57.0566 276.554 57.0369 274.239 57.0763C271.924 57.1156 269.649 57.176 267.414 57.2574C264.302 57.3362 261.847 58.0173 260.049 59.3009C258.251 60.5845 257.353 62.4298 257.356 64.8369C257.356 67.2439 258.193 69.1076 259.868 70.4279C261.543 71.7483 263.779 72.4045 266.575 72.3966C270.65 72.3966 274.002 71.4149 276.634 69.4515C279.266 67.488 280.583 64.9012 280.585 61.6909V57.1353Z" fill=""/>
</g>
<defs>
<clipPath id="clip0_36_1721">
<rect width="294" height="83" fill="white"/>
</clipPath>
</defs>
</svg>
