<svg width="142" height="40" viewBox="0 0 142 40" fill="none" xmlns="http://www.w3.org/2000/svg">
<g clip-path="url(#clip0_98_919)">
<path d="M18.0641 39.4194V36.2315C17.1594 37.4477 15.9567 38.408 14.573 39.019C13.0175 39.6993 11.3347 40.0358 9.63848 40.0057C6.82868 40.0057 4.52012 39.2713 2.71283 37.8027C0.905533 36.334 0.00125944 34.2834 0 31.6509C0 28.754 0.952134 26.6382 2.8564 25.3036C4.76067 23.969 7.32929 23.2277 10.5623 23.0797C11.8696 23.0013 13.1202 22.9722 14.3141 22.9924C15.5081 23.0127 16.6617 23.0418 17.7751 23.0797V20.8767C17.7751 19.2549 17.2946 18.0759 16.3337 17.3397C15.3727 16.6034 14.1221 16.2366 12.5818 16.2391C11.0415 16.2391 9.82928 16.6256 8.94515 17.3985C8.06103 18.1714 7.42628 19.2151 7.04089 20.5294L0.9238 19.4858C1.39197 17.0247 2.72313 14.8137 4.67566 13.2543C6.67439 11.6097 9.34818 10.7875 12.697 10.7875C16.0043 10.7875 18.7556 11.5509 20.9508 13.0778C23.146 14.6047 24.2423 17.2233 24.2398 20.9336V39.4251L18.0641 39.4194ZM17.7751 27.5351C16.8532 27.4972 15.8337 27.4877 14.7165 27.5066C13.5994 27.5256 12.5031 27.5547 11.4275 27.5939C9.92752 27.6319 8.74428 27.9602 7.87779 28.5787C7.01129 29.1973 6.57868 30.0841 6.57994 31.2391C6.57994 32.3991 6.98358 33.2973 7.79088 33.9336C8.59818 34.5699 9.67563 34.8861 11.0232 34.8823C12.9854 34.8823 14.6013 34.4092 15.8708 33.463C17.1403 32.5168 17.7751 31.2701 17.7751 29.723V27.5351Z" fill=""/>
<path d="M31.7383 39.4194V0H38.3768V39.4194H31.7383Z" fill=""/>
<path d="M62.5036 39.4194H57.8865C54.1157 39.4194 51.4608 38.6173 49.9218 37.0133C48.3828 35.4093 47.6139 32.7527 47.6151 29.0437V17.279H43.1133V11.3662H47.6076V4.23151H54.2442V11.3624H62.3241V17.2752H54.2517V28.926C54.2517 30.6275 54.6075 31.8159 55.3191 32.4915C56.0307 33.167 57.0981 33.5054 58.5212 33.5066H62.5036V39.4194Z" fill=""/>
<path d="M92.1109 26.7818H72.543C72.6967 29.3321 73.4089 31.2739 74.6797 32.6072C75.9505 33.9405 77.6047 34.6072 79.6425 34.6072C81.5656 34.6072 83.0279 34.1644 84.0291 33.2789C85.0304 32.3934 85.6846 31.4447 85.9919 30.4326L91.9352 31.5332C91.3194 33.852 90.002 35.8425 87.9831 37.5047C85.9642 39.167 83.1475 39.9987 79.5329 40C75.339 40 72.0399 38.7052 69.6356 36.1157C67.2314 33.5262 66.0286 29.9513 66.0273 25.3909C66.0273 23.0342 66.3831 20.9374 67.0947 19.1006C67.7281 17.3886 68.7114 15.8289 69.9813 14.5218C71.1939 13.3024 72.6496 12.3544 74.2527 11.74C75.9412 11.0937 77.7356 10.7718 79.5424 10.7913C83.5436 10.7913 86.6406 12.0563 88.8332 14.5863C91.0259 17.1164 92.1229 20.5465 92.1242 24.8767L92.1109 26.7818ZM79.5329 16.1727C77.9264 16.1432 76.3617 16.6879 75.118 17.7097C73.8673 18.7343 73.0487 20.2321 72.6621 22.203H85.7671C85.6147 20.3472 85.0285 18.8786 84.0083 17.797C82.9882 16.7154 81.4964 16.1739 79.5329 16.1727Z" fill=""/>
<path d="M98.0469 39.4193V11.3624H104.47V15.0721C105.431 13.6034 106.633 12.6179 108.076 12.1157C109.4 11.6326 110.796 11.376 112.204 11.3567H114.454V17.3871H112.089C110.33 17.3611 108.59 17.7511 107.009 18.5256C105.509 19.2846 104.759 20.4731 104.759 22.0911V39.4231L98.0469 39.4193Z" fill=""/>
<path d="M135.511 39.4194V36.2315C134.606 37.4452 133.403 38.4034 132.02 39.0133C130.465 39.6934 128.782 40.0299 127.086 40C124.276 40 121.967 39.2657 120.16 37.797C118.353 36.3283 117.449 34.2796 117.447 31.6509C117.447 28.754 118.399 26.6382 120.304 25.3036C122.208 23.969 124.777 23.2277 128.01 23.0797C129.317 23.0013 130.567 22.9722 131.76 22.9924C132.952 23.0127 134.106 23.0418 135.222 23.0797V20.8767C135.222 19.2549 134.742 18.0759 133.781 17.3397C132.82 16.6034 131.569 16.2366 130.029 16.2391C128.49 16.2391 127.278 16.6256 126.392 17.3985C125.468 18.2342 124.807 19.3221 124.488 20.5294L118.371 19.4858C118.839 17.0247 120.17 14.8137 122.123 13.2543C124.122 11.6097 126.795 10.7875 130.144 10.7875C133.452 10.7875 136.202 11.5509 138.396 13.0778C140.59 14.6047 141.687 17.2233 141.687 20.9336V39.4251L135.511 39.4194ZM135.222 27.5351C134.299 27.4972 133.28 27.4877 132.164 27.5066C131.048 27.5256 129.952 27.5547 128.875 27.5939C127.375 27.6319 126.192 27.9602 125.325 28.5787C124.459 29.1973 124.026 30.0867 124.027 31.2467C124.027 32.4067 124.431 33.3049 125.238 33.9412C126.045 34.5775 127.123 34.8937 128.471 34.8899C130.434 34.8899 132.05 34.4168 133.318 33.4706C134.586 32.5244 135.221 31.2777 135.222 29.7306V27.5351Z" fill=""/>
</g>
<defs>
<clipPath id="clip0_98_919">
<rect width="141.687" height="40" fill="white"/>
</clipPath>
</defs>
</svg>
