<svg width="414" height="26" viewBox="0 0 414 26" fill="none" xmlns="http://www.w3.org/2000/svg">
<mask id="mask0_5002_854" style="mask-type:luminance" maskUnits="userSpaceOnUse" x="0" y="2" width="238" height="21">
<path d="M238 2H0V22.2889H238V2Z" fill="white"/>
</mask>
<g mask="url(#mask0_5002_854)">
<path d="M1.4875 6.22982H4.76L5.50375 2.4375H10.71L9.96625 6.22982H12.7925L13.5363 2.4375H18.5938L17.85 6.22982H20.3787V10.3139H17.1062L16.3625 13.9603H19.04V18.0444H15.6187L14.875 21.9825H9.8175L10.4125 18.0444H7.58625L6.8425 21.9825H1.785L2.52875 18.0444H0V13.9603H3.2725L4.01625 10.3139H1.4875V6.22982ZM8.47875 13.9603H11.305L12.0487 10.3139H9.07375L8.47875 13.9603Z" fill="#0C0B1C" fill-opacity="0.2"/>
<path d="M49.2381 2.4375L51.0231 10.3139L56.0806 2.4375H61.4356L49.0894 21.9825H43.7344L47.4531 15.8565L43.7344 2.4375H49.2381Z" fill="#0C0B1C" fill-opacity="0.2"/>
<path d="M63.0693 2.4375H70.5068C74.8206 2.4375 76.7543 3.89608 76.7543 6.52154C76.7865 7.6322 76.4775 8.72671 75.8675 9.66304C75.2574 10.5994 74.3744 11.3343 73.3331 11.7724C74.1327 11.9452 74.8427 12.3934 75.334 13.0358C75.8253 13.6781 76.0654 14.4719 76.0106 15.273V16.1482C75.4156 19.6488 72.8868 21.9825 67.2343 21.9825H59.3506L63.0693 2.4375ZM70.6556 15.4189C70.6556 14.3979 70.0606 13.9603 68.4243 13.9603H66.1931L65.4493 17.7526H67.8293C69.4656 17.7526 70.3581 17.3151 70.6556 15.8565V15.4189ZM71.5481 7.83426C71.5481 6.95911 70.8043 6.66739 69.4656 6.66739H67.5318L66.9368 10.0221H68.8706C70.3581 10.0221 71.2506 9.4387 71.3993 8.27184L71.5481 7.83426Z" fill="#0C0B1C" fill-opacity="0.2"/>
<path d="M93.2671 2.4375L95.9446 21.9825H90.2921L89.8458 18.7736H83.4496L81.9621 21.9825H76.3096L86.4246 2.4375H93.2671ZM85.6808 14.252H89.5483L88.9533 7.39669L85.6808 14.252Z" fill="#0C0B1C" fill-opacity="0.2"/>
<path d="M106.653 15.7106H104.868L103.678 21.9825H98.3232L102.042 2.4375H109.182C113.347 2.4375 116.173 4.04194 116.173 7.54255C116.132 8.0384 116.032 8.52788 115.876 9.00113C115.132 13.5227 111.413 15.7106 106.653 15.7106ZM110.669 8.27184C110.669 7.10497 109.777 6.52154 108.289 6.52154H106.504L105.612 11.4807H107.397C107.768 11.5211 108.144 11.4888 108.503 11.3858C108.862 11.2827 109.196 11.1109 109.487 10.8803C109.777 10.6497 110.018 10.3648 110.196 10.0423C110.373 9.71972 110.484 9.36584 110.521 9.00113C110.641 8.77718 110.693 8.52391 110.669 8.27184Z" fill="#0C0B1C" fill-opacity="0.2"/>
<path d="M142.8 6.81325H137.445L138.338 2.4375H154.403L153.51 6.81325H148.155L145.329 21.9825H139.974L142.8 6.81325Z" fill="#0C0B1C" fill-opacity="0.2"/>
<path d="M161.395 15.7106H159.462L158.272 21.9825H153.065L156.784 2.4375H163.924C168.089 2.4375 170.767 4.04194 170.767 7.54255C170.783 8.03305 170.733 8.52354 170.618 9.00113C169.874 13.5227 166.155 15.7106 161.395 15.7106ZM165.412 8.27184C165.412 7.10497 164.519 6.52154 162.883 6.52154H161.247L160.354 11.4807H161.99C162.373 11.5424 162.765 11.5261 163.141 11.4329C163.517 11.3397 163.87 11.1716 164.177 10.939C164.484 10.7064 164.739 10.4143 164.925 10.0809C165.112 9.74749 165.227 9.37994 165.263 9.00113C165.263 8.70941 165.412 8.56355 165.412 8.27184Z" fill="#0C0B1C" fill-opacity="0.2"/>
<path d="M171.659 14.6897C171.659 7.39676 176.865 2 183.262 2C189.658 2 190.997 5.06303 190.997 9.7305C190.997 17.0234 185.79 22.2743 179.394 22.2743C172.998 22.2743 171.808 19.3572 171.808 14.6897M185.493 10.3139C185.493 7.98019 184.452 6.52161 182.369 6.52161C180.287 6.52161 177.163 9.58464 177.163 14.1062C177.163 16.44 178.353 17.8986 180.287 17.8986C182.22 17.8986 185.493 14.9814 185.493 10.3139Z" fill="#0C0B1C" fill-opacity="0.2"/>
<path d="M195.605 2.4375H200.812L198.729 13.0852L206.91 2.4375H212.117L208.398 21.9825H203.192L205.274 11.3349L197.093 21.9825H191.887L195.605 2.4375Z" fill="#0C0B1C" fill-opacity="0.2"/>
<path d="M219.108 6.81325H213.753L214.497 2.4375H230.562L229.669 6.81325H224.314L221.488 21.9825H216.133L219.108 6.81325Z" fill="#0C0B1C" fill-opacity="0.2"/>
<path d="M128.818 2C132.983 2 136.851 4.33373 136.702 9.58464H131.942C131.644 7.39676 130.008 6.81333 127.926 6.81333C125.843 6.81333 122.571 9.58464 121.976 12.6477C121.381 15.7107 123.166 17.6069 125.992 17.6069C127.024 17.6145 128.037 17.3295 128.908 16.7861C129.778 16.2427 130.471 15.464 130.901 14.5438H135.809C135.134 16.8161 133.724 18.8121 131.793 20.2323C129.862 21.6525 127.513 22.4202 125.099 22.4202C120.042 22.4202 115.728 18.9196 116.918 12.2101C117.285 9.388 118.703 6.79866 120.9 4.94058C123.097 3.0825 125.918 2.08704 128.818 2.14586" fill="#0C0B1C" fill-opacity="0.2"/>
<path d="M35.4022 2C39.5672 2 43.4347 4.33373 43.2859 9.58464H38.5259C38.2284 7.39676 36.7409 6.81333 34.5097 6.81333C32.2784 6.81333 29.1547 9.58464 28.5597 12.6477C27.9647 15.7107 29.7497 17.6069 32.5759 17.6069C33.6082 17.6145 34.6207 17.3295 35.4916 16.7861C36.3625 16.2427 37.0546 15.464 37.4847 14.5438H42.3934C41.7176 16.8161 40.3083 18.8121 38.3772 20.2323C36.4461 21.6525 34.0973 22.4202 31.6834 22.4202C26.6259 22.4202 22.3122 18.9196 23.5022 12.2101C23.8688 9.388 25.2872 6.79866 27.4842 4.94058C29.6812 3.0825 32.5015 2.08704 35.4022 2.14586" fill="#0C0B1C" fill-opacity="0.2"/>
<path d="M233.687 22.2747C234.369 22.3038 235.045 22.1321 235.627 21.7816C236.208 21.4311 236.67 20.9179 236.952 20.308C237.234 19.6982 237.323 19.0195 237.208 18.3595C237.094 17.6994 236.78 17.0881 236.308 16.6042C235.836 16.1204 235.227 15.7861 234.56 15.6444C233.892 15.5026 233.197 15.56 232.563 15.8091C231.929 16.0581 231.386 16.4875 231.003 17.0419C230.62 17.5963 230.415 18.2503 230.415 18.9199C230.394 19.3534 230.464 19.7864 230.62 20.1928C230.775 20.5991 231.013 20.9703 231.319 21.2838C231.625 21.5974 231.992 21.8469 232.399 22.0172C232.806 22.1875 233.244 22.2751 233.687 22.2747Z" fill="#0C0B1C" fill-opacity="0.2"/>
</g>
<g clip-path="url(#clip0_5002_854)">
<path d="M257.365 13.2451C257.365 14.5134 256.865 15.6415 256.047 16.4769C255.229 17.3077 254.113 17.815 252.864 17.815C251.615 17.815 250.504 17.3077 249.682 16.4769C248.863 15.6459 248.364 14.5134 248.364 13.2451C248.364 11.9769 248.863 10.8486 249.682 10.0178C250.5 9.18689 251.615 8.6796 252.864 8.6796C254.113 8.6796 255.224 9.18689 256.047 10.0178C256.865 10.8486 257.365 11.9813 257.365 13.2451ZM260.733 19.5249V13.2451C260.733 11.0454 259.85 9.03819 258.429 7.59946C257.012 6.15633 255.035 5.25985 252.864 5.25985C250.698 5.25985 248.721 6.15633 247.304 7.59946C245.883 9.03382 245 11.0454 245 13.2451C245 15.4448 245.883 17.452 247.304 18.8907C248.721 20.3339 250.698 21.2303 252.864 21.2303C254.544 21.2303 256.107 20.6881 257.386 19.7698C257.507 20.5963 258.2 21.2303 259.045 21.2303C259.975 21.2303 260.729 20.465 260.729 19.5204M274.95 8.15483C275.596 7.48138 275.579 6.40122 274.915 5.74963C274.252 5.09367 273.188 5.11117 272.546 5.78462L267.296 11.2772H265.888V6.96972C265.888 6.02951 265.139 5.26859 264.213 5.26859C263.287 5.26859 262.537 6.02951 262.537 6.96972V19.5204C262.537 20.4607 263.287 21.2216 264.213 21.2216C265.139 21.2216 265.888 20.4607 265.888 19.5204V14.6795H267.253L272.499 20.6531C273.115 21.3572 274.175 21.4184 274.868 20.793C275.557 20.1677 275.622 19.092 275.006 18.3879L270.298 13.0264L274.958 8.15483H274.95ZM289.494 13.2451C289.494 11.9769 289.993 10.8486 290.812 10.0134C291.63 9.1825 292.746 8.67523 293.995 8.67523C295.243 8.67523 296.355 9.1825 297.177 10.0134C297.996 10.8443 298.495 11.9769 298.495 13.2451C298.495 14.5134 297.996 15.6415 297.177 16.4769C296.359 17.3077 295.243 17.815 293.995 17.815C292.746 17.815 291.634 17.3077 290.812 16.4769C289.993 15.6459 289.494 14.5134 289.494 13.2451ZM289.761 4.98872C289.593 4.81817 289.498 4.59951 289.494 4.33713C289.494 4.07912 289.593 3.86046 289.761 3.68553C289.929 3.51499 290.144 3.41877 290.403 3.4144H300.179C301.109 3.4144 301.863 2.64912 301.863 1.70453C301.863 0.759942 301.105 -0.000976562 300.175 -0.000976562H290.398C289.223 -0.000976562 288.146 0.48881 287.375 1.27159C286.604 2.05 286.122 3.14764 286.126 4.33713C286.126 5.53097 286.608 6.62425 287.375 7.40703C287.586 7.62569 287.827 7.81373 288.081 7.98428C286.867 9.38805 286.122 11.2335 286.122 13.2451C286.122 15.4448 287.005 17.452 288.426 18.8907C289.843 20.3339 291.82 21.2303 293.986 21.2303C296.152 21.2303 298.129 20.3339 299.546 18.8907C300.967 17.452 301.85 15.4448 301.85 13.2451C301.85 11.0454 300.967 9.03819 299.546 7.59508C298.129 6.15196 296.152 5.25548 293.986 5.25548H290.394C290.14 5.25548 289.925 5.1549 289.752 4.98435M315.455 13.2408C315.455 14.5089 314.956 15.6372 314.138 16.4725C313.319 17.3033 312.204 17.8106 310.959 17.8106C309.71 17.8106 308.599 17.3033 307.776 16.4725C306.958 15.6415 306.459 14.5089 306.459 13.2408C306.459 11.9725 306.958 10.8443 307.776 10.0134C308.595 9.1825 309.71 8.67523 310.959 8.67523C312.208 8.67523 313.319 9.1825 314.138 10.0134C314.956 10.8443 315.455 11.9769 315.455 13.2408ZM318.823 19.5204V13.2408C318.823 11.0411 317.941 9.03382 316.519 7.59508C315.102 6.15196 313.125 5.25548 310.959 5.25548C308.793 5.25548 306.816 6.15196 305.399 7.59508C303.978 9.03382 303.095 11.0411 303.095 13.2408C303.095 15.4404 303.978 17.4476 305.399 18.8864C306.816 20.3296 308.793 21.226 310.959 21.226C312.639 21.226 314.202 20.6837 315.481 19.7654C315.602 20.5919 316.295 21.226 317.139 21.226C318.07 21.226 318.823 20.4607 318.823 19.5162M332.989 13.2364C332.989 14.5045 332.489 15.6328 331.671 16.468C330.852 17.299 329.737 17.8063 328.488 17.8063C327.239 17.8063 326.128 17.299 325.309 16.468C324.491 15.6372 323.992 14.5045 323.992 13.2364C323.992 11.9682 324.491 10.8399 325.309 10.009C326.128 9.17814 327.243 8.67086 328.488 8.67086C329.737 8.67086 330.848 9.17814 331.671 10.009C332.489 10.8399 332.989 11.9725 332.989 13.2364ZM334.052 18.882C335.474 17.4433 336.357 15.436 336.357 13.2364C336.357 11.0367 335.474 9.02946 334.052 7.59071C332.635 6.14759 330.659 5.2511 328.488 5.2511C326.322 5.2511 324.345 6.14759 322.928 7.59071C321.507 9.02946 320.624 11.0367 320.624 13.2364V24.2872C320.624 25.2317 321.377 25.997 322.308 25.997C323.152 25.997 323.966 25.2317 323.966 24.2872V19.7654C325.245 20.6794 326.808 21.226 328.488 21.226C330.654 21.226 332.631 20.3296 334.052 18.8864M350.767 9.61981C351.374 8.91138 351.301 7.8356 350.603 7.219C349.234 6.00764 347.425 5.25985 345.457 5.25985C343.291 5.25985 341.318 6.15633 339.901 7.59508C338.48 9.03382 337.597 11.0411 337.601 13.2364C337.601 15.436 338.484 17.4389 339.901 18.8776C341.318 20.3207 343.295 21.2172 345.457 21.2129C347.425 21.2129 349.234 20.465 350.603 19.2537C351.301 18.6371 351.374 17.5613 350.767 16.8528C350.16 16.1445 349.1 16.0701 348.403 16.6867C347.606 17.3864 346.585 17.8106 345.452 17.8106C344.204 17.8106 343.088 17.3033 342.265 16.4725C341.447 15.6415 340.948 14.5045 340.948 13.2364C340.948 11.9682 341.447 10.8355 342.265 10.0003C343.084 9.16939 344.199 8.66212 345.452 8.66212C346.585 8.66212 347.602 9.08192 348.403 9.78599C349.1 10.4026 350.16 10.3283 350.767 9.61544M374.007 13.232C374.007 14.5002 373.507 15.6285 372.689 16.4638C371.871 17.2946 370.755 17.8018 369.506 17.8018C368.257 17.8018 367.146 17.2946 366.323 16.4638C365.505 15.6328 365.005 14.5002 365.005 13.232C365.005 11.9638 365.505 10.8355 366.323 10.0047C367.142 9.17377 368.257 8.66648 369.506 8.66648C370.755 8.66648 371.866 9.17377 372.689 10.0047C373.507 10.8355 374.007 11.9682 374.007 13.232ZM376.121 24.7158C376.893 23.9373 377.374 22.8396 377.374 21.6502V6.96535C377.374 6.02076 376.622 5.25548 375.691 5.25548C374.847 5.25548 374.153 5.88958 374.033 6.71609C372.753 5.80211 371.19 5.25548 369.51 5.25548C367.344 5.25548 365.367 6.15196 363.95 7.59508C362.529 9.03382 361.646 11.0411 361.646 13.2408C361.646 15.4404 362.529 17.4476 363.95 18.8907C365.367 20.3339 367.344 21.2303 369.51 21.2303C371.182 21.2303 372.732 20.6925 374.007 19.7916V21.6634C374.007 21.9213 373.907 22.1399 373.743 22.3149C373.576 22.4855 373.361 22.5817 373.102 22.5817H366.216C365.285 22.5817 364.532 23.347 364.532 24.2916C364.532 25.2362 365.285 26.0015 366.216 26.0015H373.102C374.279 26.0015 375.355 25.5116 376.126 24.7289M391.565 13.232C391.565 14.5045 391.062 15.6415 390.244 16.4769C389.421 17.3077 388.302 17.8194 387.048 17.8194C385.795 17.8194 384.675 17.3077 383.853 16.4769C383.033 15.6415 382.53 14.5045 382.53 13.232C382.53 11.9594 383.033 10.8224 383.853 9.98715C384.675 9.15627 385.795 8.64462 387.048 8.64462C388.302 8.64462 389.421 9.15627 390.244 9.98715C391.062 10.8224 391.565 11.9594 391.565 13.232ZM392.613 18.882C394.034 17.4433 394.916 15.4317 394.916 13.232C394.916 11.0323 394.034 9.02071 392.613 7.58196C391.195 6.13884 389.215 5.24236 387.048 5.24236C384.882 5.24236 382.905 6.13884 381.483 7.58196C380.062 9.02071 379.18 11.0323 379.18 13.232C379.18 15.4317 380.062 17.4433 381.483 18.882C382.9 20.3251 384.882 21.2216 387.048 21.2216C389.215 21.2216 391.195 20.3251 392.613 18.882ZM414 19.5073V6.95661C414 6.2919 413.612 5.67967 413.014 5.40416C412.415 5.12865 411.708 5.23798 411.218 5.67529L405.361 10.9099L399.503 5.67529C399.008 5.23361 398.306 5.12865 397.707 5.40416C397.109 5.67967 396.721 6.28752 396.721 6.95661V19.5073C396.721 20.4476 397.47 21.2085 398.397 21.2085C399.323 21.2085 400.072 20.4476 400.072 19.5073V10.7218L404.253 14.4564C404.887 15.0249 405.834 15.0249 406.468 14.4564L410.646 10.7218V19.5073C410.646 20.4476 411.395 21.2085 412.32 21.2085C413.246 21.2085 413.996 20.4476 413.996 19.5073" fill="#CECED2"/>
</g>
<defs>
<clipPath id="clip0_5002_854">
<rect width="169" height="26" fill="white" transform="translate(245)"/>
</clipPath>
</defs>
</svg>
