<svg width="113" height="31" viewBox="0 0 113 31" fill="none" xmlns="http://www.w3.org/2000/svg">
<path d="M40.403 0H23.2267L20.2015 3.02363L17.1763 0H0V11.0866L4.03358 15.1181L0 19.1496V30.2363H17.1763L20.2015 27.2126L23.2267 30.2363H40.403V19.1496L36.3694 15.1181L40.403 11.0866V0ZM22.9578 6.78636L25.1427 4.60263H35.7644V9.17167L32.4031 12.5313H22.9914V6.78636H22.9578ZM4.63862 4.63623H15.2604L16.336 5.7113L17.4116 6.78636V12.5313H7.99993L7.59658 12.1281L4.63862 9.17167V4.63623ZM17.4116 23.4835L16.336 24.5586L15.2604 25.6336H4.63862V21.0982L7.99993 17.7386H17.4116V23.4835ZM35.7644 25.6672H25.1427L22.9578 23.4835V17.7386H32.3695L35.3274 20.695L35.7308 21.0982V25.6672H35.7644Z" fill="#0C0B1C" fill-opacity="0.2"/>
<path d="M53.8164 10.9615C54.3283 10.9875 54.8247 11.145 55.2574 11.4186C55.6901 11.6923 56.0443 12.0728 56.2855 12.5232C56.2855 12.5232 56.6859 12.4567 56.7192 12.5232L58.9214 11.4267C57.9538 9.73215 56.152 8.73535 53.9499 8.73535H53.5161C50.0794 8.73535 47.8105 11.1277 47.8105 14.7826C47.8105 18.4375 50.1128 20.8299 53.5161 20.8299H53.9499C56.152 20.8299 57.9538 19.8331 58.9214 18.1385L56.7192 17.042C56.6859 17.1085 56.2855 17.042 56.2855 17.042C56.0417 17.4903 55.6869 17.8691 55.2548 18.1424C54.8226 18.4158 54.3275 18.5745 53.8164 18.6037C52.1815 18.504 50.9469 17.1749 50.9469 14.7826C50.9469 12.3903 52.1815 11.0944 53.8164 10.9615Z" fill="#0C0B1C" fill-opacity="0.2"/>
<path d="M69.9552 8.73535L66.648 15.0489L63.3409 8.73535H60.2676V20.4939H63.2741V13.9131L65.6125 18.356H67.6836L70.0554 13.9131V20.4939H73.0619V8.73535H69.9552Z" fill="#0C0B1C" fill-opacity="0.2"/>
<path d="M84.7533 8.73535H82.4659H82.0681L79.8138 13.6459L77.5264 8.73535H77.1286H74.808H74.4102L78.3551 16.8862L76.7639 20.4939H77.1617H79.4823H79.9133L85.1843 8.73535H84.7533Z" fill="#0C0B1C" fill-opacity="0.2"/>
<path d="M99.4045 14.4836C99.856 14.2168 100.229 13.8372 100.487 13.3825C100.745 12.9278 100.879 12.4139 100.875 11.8919C100.875 10.1309 99.3377 8.73535 96.7971 8.73535H96.3959C93.9556 8.73535 92.3845 10.0644 92.3845 11.9916C92.3845 12.9219 92.8191 13.7526 93.7216 14.4503C93.1718 14.7161 92.7097 15.1326 92.3899 15.6506C92.0701 16.1686 91.9059 16.7666 91.9165 17.3743C91.9165 19.5008 93.7217 20.8299 96.4294 20.8299H96.8305C99.6051 20.8299 101.343 19.4343 101.343 17.4075C101.343 16.2114 100.775 15.2146 99.4045 14.4836ZM97.9002 12.1245C97.9029 12.3923 97.8441 12.6572 97.7282 12.899C97.6124 13.1409 97.4425 13.3532 97.2317 13.52C95.8611 12.9551 95.4265 12.5564 95.4265 11.9583C95.4265 11.3603 95.8945 10.8619 96.6634 10.7954C97.0033 10.8126 97.3229 10.9613 97.5541 11.2096C97.7852 11.458 97.9094 11.7863 97.9002 12.1245ZM94.9919 17.2746C94.9919 16.9393 95.0705 16.6086 95.2213 16.3087C95.3722 16.0089 95.5912 15.748 95.8611 15.5468C97.7331 16.2778 98.268 16.7098 98.268 17.5072C98.268 18.3046 97.6328 18.7034 96.6634 18.7698C95.6939 18.8363 94.9919 18.1717 94.9919 17.2746Z" fill="#0C0B1C" fill-opacity="0.2"/>
<path d="M110.18 14.4836C110.631 14.2168 111.005 13.8372 111.263 13.3825C111.521 12.9278 111.655 12.4139 111.651 11.8919C111.651 10.1309 110.113 8.73535 107.572 8.73535H107.171C104.731 8.73535 103.16 10.0644 103.16 11.9916C103.16 12.9219 103.594 13.7526 104.497 14.4503C103.947 14.7161 103.485 15.1326 103.165 15.6506C102.846 16.1686 102.681 16.7666 102.692 17.3743C102.692 19.5008 104.497 20.8299 107.205 20.8299H107.606C110.38 20.8299 112.119 19.4343 112.119 17.4075C112.119 16.2114 111.517 15.2146 110.18 14.4836ZM108.642 12.1245C108.645 12.3923 108.586 12.6572 108.47 12.899C108.354 13.1409 108.184 13.3532 107.974 13.52C106.603 12.9551 106.168 12.5564 106.168 11.9583C106.168 11.3603 106.636 10.8619 107.405 10.7954C107.575 10.7996 107.742 10.8376 107.897 10.9071C108.052 10.9767 108.191 11.0764 108.306 11.2003C108.422 11.3242 108.511 11.4698 108.568 11.6285C108.626 11.7873 108.651 11.9559 108.642 12.1245ZM105.767 17.2746C105.767 16.9393 105.846 16.6086 105.997 16.3087C106.148 16.0089 106.367 15.748 106.636 15.5468C108.508 16.2778 109.043 16.7098 109.043 17.5072C109.043 18.3046 108.408 18.7034 107.439 18.7698C106.469 18.8363 105.767 18.1717 105.767 17.2746Z" fill="#0C0B1C" fill-opacity="0.2"/>
<path d="M83.8369 16.7981H89.5607V13.4385H85.6006L83.8369 16.7981Z" fill="#0C0B1C" fill-opacity="0.2"/>
</svg>
