<svg width="27" height="27" viewBox="0 0 27 27" fill="none" xmlns="http://www.w3.org/2000/svg">
<g id="Frame" clip-path="url(#clip0_98_1321)">
<path id="Vector" d="M-0.0546875 13.5C-0.0546875 10.83 0.737074 8.21987 2.22047 5.99981C3.70387 3.77974 5.81228 2.04942 8.27909 1.02763C10.7459 0.00584933 13.4603 -0.261496 16.079 0.259405C18.6978 0.780305 21.1032 2.06606 22.9913 3.95406C24.8793 5.84207 26.165 8.24754 26.6859 10.8663C27.2068 13.485 26.9395 16.1994 25.9177 18.6662C24.8959 21.133 23.1656 23.2414 20.9455 24.7248C18.7254 26.2082 16.1154 27 13.4453 27C11.6725 27 9.91698 26.6508 8.27909 25.9724C6.64119 25.2939 5.15296 24.2995 3.89937 23.0459C1.36763 20.5142 -0.0546875 17.0804 -0.0546875 13.5Z" fill="#0C0B1C"/>
<path id="Vector_2" d="M15.2279 7.65468H13.9859C11.6909 7.65468 10.4894 8.80218 10.4894 10.5167C10.4894 12.4472 11.3264 13.3517 13.0274 14.5667L14.4449 15.5117L10.3949 21.5732H7.35742L10.9889 16.1732C8.89642 14.6747 7.72192 13.2167 7.72192 10.7732C7.72192 7.68168 9.88192 5.57568 13.9589 5.57568H18.0089V21.5057H15.2279V7.65468Z" fill="white"/>
</g>
<defs>
<clipPath id="clip0_98_1321">
<rect width="27" height="27" fill="white"/>
</clipPath>
</defs>
</svg>
