<svg width="1439" height="401" viewBox="0 0 1439 401" fill="none" xmlns="http://www.w3.org/2000/svg">
<g clip-path="url(#clip0_4001_376)">
<path d="M182.59 401.091V368.655C173.395 381.029 161.172 390.8 147.109 397.017C131.301 403.94 114.198 407.363 96.9584 407.057C68.4016 407.057 44.9392 399.585 26.5712 384.641C8.20317 369.697 -0.9872 348.833 -1 322.047C-1 292.571 8.67679 271.043 28.0304 257.463C47.384 243.884 73.4895 236.341 106.347 234.835C119.634 234.037 132.344 233.741 144.478 233.947C156.613 234.153 168.338 234.449 179.653 234.835V212.419C179.653 195.918 174.77 183.921 165.003 176.43C155.237 168.939 142.526 165.206 126.872 165.232C111.218 165.232 98.8976 169.164 89.9119 177.029C80.9264 184.893 74.4752 195.512 70.5584 208.886L8.38883 198.267C13.147 173.225 26.6759 150.729 46.52 134.861C66.8336 118.128 94.008 109.762 128.043 109.762C161.656 109.762 189.618 117.53 211.928 133.066C234.238 148.602 245.381 175.246 245.355 212.998V401.149L182.59 401.091ZM179.653 280.169C170.283 279.783 159.922 279.686 148.568 279.879C137.214 280.072 126.072 280.368 115.141 280.767C99.896 281.154 87.8704 284.494 79.064 290.788C70.2576 297.082 65.8608 306.105 65.8736 317.857C65.8736 329.66 69.976 338.799 78.1808 345.273C86.3856 351.748 97.336 354.966 111.032 354.927C130.974 354.927 147.397 350.113 160.299 340.485C173.202 330.857 179.653 318.172 179.653 302.43V280.169Z" fill="#EEEEEE"/>
<path d="M321.561 401.092V0H389.029V401.092H321.561Z" fill="#EEEEEE"/>
<path d="M634.233 401.091H587.308C548.985 401.091 522.002 392.931 506.361 376.609C490.719 360.288 482.905 333.258 482.918 295.518V175.812H437.164V115.651H482.841V43.0547H550.29V115.612H632.409V175.774H550.367V294.321C550.367 311.634 553.983 323.726 561.215 330.6C568.447 337.473 579.295 340.916 593.759 340.929H634.233V401.091Z" fill="#EEEEEE"/>
<path d="M935.154 272.505H736.28C737.842 298.454 745.08 318.212 757.996 331.779C770.911 345.345 787.723 352.129 808.434 352.129C827.979 352.129 842.84 347.624 853.016 338.613C863.192 329.603 869.842 319.95 872.965 309.652L933.368 320.851C927.109 344.444 913.72 364.698 893.202 381.611C872.684 398.524 844.056 406.987 807.32 407C764.696 407 731.167 393.826 706.732 367.478C682.296 341.13 670.072 304.755 670.06 258.353C670.06 234.373 673.675 213.038 680.907 194.349C687.345 176.93 697.339 161.059 710.245 147.76C722.569 135.353 737.363 125.707 753.656 119.455C770.817 112.879 789.053 109.604 807.416 109.801C848.082 109.801 879.557 122.673 901.842 148.416C924.127 174.159 935.276 209.061 935.288 253.12L935.154 272.505ZM807.32 164.557C790.993 164.257 775.091 169.8 762.45 180.196C749.74 190.622 741.42 205.862 737.49 225.916H870.68C869.132 207.034 863.173 192.09 852.805 181.084C842.437 170.079 827.276 164.57 807.32 164.557Z" fill="#EEEEEE"/>
<path d="M995.48 401.092V115.613H1060.76V153.359C1070.53 138.415 1082.74 128.388 1097.41 123.278C1110.87 118.361 1125.05 115.751 1139.37 115.555H1162.23V176.914H1138.19C1120.32 176.649 1102.63 180.618 1086.57 188.498C1071.32 196.221 1063.7 208.314 1063.7 224.777V401.13L995.48 401.092Z" fill="#EEEEEE"/>
<path d="M1376.24 401.091V368.655C1367.03 381.004 1354.81 390.753 1340.75 396.959C1324.94 403.879 1307.84 407.303 1290.6 406.999C1262.05 406.999 1238.58 399.527 1220.22 384.583C1201.85 369.639 1192.66 348.794 1192.64 322.047C1192.64 292.571 1202.32 271.043 1221.68 257.463C1241.03 243.884 1267.13 236.341 1299.99 234.835C1313.28 234.037 1325.98 233.741 1338.1 233.947C1350.23 234.153 1361.96 234.449 1373.3 234.835V212.419C1373.3 195.918 1368.41 183.922 1358.65 176.43C1348.88 168.939 1336.17 165.206 1320.52 165.232C1304.88 165.232 1292.56 169.164 1283.56 177.029C1274.17 185.532 1267.44 196.602 1264.2 208.886L1202.03 198.267C1206.79 173.225 1220.32 150.729 1240.16 134.861C1260.48 118.128 1287.65 109.762 1321.69 109.762C1355.3 109.762 1383.26 117.53 1405.55 133.066C1427.85 148.602 1439 175.246 1439 212.998V401.149L1376.24 401.091ZM1373.3 280.169C1363.92 279.783 1353.55 279.686 1342.21 279.879C1330.87 280.072 1319.73 280.368 1308.79 280.768C1293.54 281.154 1281.52 284.494 1272.71 290.788C1263.9 297.082 1259.51 306.131 1259.52 317.934C1259.52 329.738 1263.62 338.876 1271.83 345.351C1280.03 351.825 1290.98 355.043 1304.68 355.004C1324.63 355.004 1341.05 350.19 1353.94 340.562C1366.83 330.935 1373.28 318.25 1373.3 302.508V280.169Z" fill="#EEEEEE"/>
</g>
<defs>
<clipPath id="clip0_4001_376">
<rect width="1440" height="407" fill="white" transform="translate(-1)"/>
</clipPath>
</defs>
</svg>
